<svg width="54" height="54" viewBox="0 0 54 54" fill="none" xmlns="http://www.w3.org/2000/svg">
<circle cx="27" cy="27" r="27" fill="#D0D5FF"/>
<path d="M27.8615 12C27.8615 17.6556 27.8615 23.3111 27.8615 28.9667C27.8615 32.3958 28.4587 35.8114 28.4587 39.3C28.4587 40.6537 28.1727 41.8919 26.3685 41.0333C25.1695 40.4627 25.0155 38.2407 24.129 37.35C21.6284 34.8377 17.951 33.5057 15.171 31.3333C14.6632 30.9365 14.1798 30.5255 13.678 30.1333C12.684 29.3567 12.8687 29.016 13.678 30.0167C16.1546 33.0791 19.54 35.2525 22.7189 37.5C24.0691 38.4546 25.1601 39.6763 26.6671 40.4333C27.4298 40.8165 28.6936 42 29.5038 42C30.3422 42 32.9598 39.4319 33.6677 38.85C34.7616 37.9508 35.6048 36.7356 36.521 35.7C37.2694 34.854 38.0756 34.0561 38.7771 33.15C39.3427 32.4194 40.2205 30.9916 41 30.6" stroke="#1A1A1A" stroke-width="4" stroke-linecap="round"/>
</svg>
