<svg width="30" height="30" viewBox="0 0 30 30" fill="none" xmlns="http://www.w3.org/2000/svg">
<circle cx="15" cy="15" r="15" fill="#D0D5FF"/>
<path d="M15.4791 6.66663C15.4791 9.8086 15.4791 12.9506 15.4791 16.0926C15.4791 17.9976 15.8108 19.8952 15.8108 21.8333C15.8108 22.5854 15.6519 23.2733 14.6496 22.7963C13.9835 22.4792 13.8979 21.2448 13.4054 20.75C12.0162 19.3542 9.97321 18.6142 8.42875 17.4074C8.14663 17.1869 7.87812 16.9586 7.5993 16.7407C7.04712 16.3092 7.14971 16.12 7.5993 16.6759C8.97521 18.3773 10.856 19.5847 12.6221 20.8333C13.3722 21.3636 13.9783 22.0424 14.8155 22.4629C15.2392 22.6758 15.9413 23.3333 16.3915 23.3333C16.8572 23.3333 18.3114 21.9065 18.7047 21.5833C19.3124 21.0837 19.7809 20.4086 20.2899 19.8333C20.7057 19.3633 21.1535 18.92 21.5433 18.4166C21.8575 18.0107 22.3451 17.2175 22.7782 17" stroke="#1A1A1A" stroke-width="2" stroke-linecap="round"/>
</svg>
