<svg width="42" height="42" viewBox="0 0 42 42" fill="none" xmlns="http://www.w3.org/2000/svg">
<g clip-path="url(#clip0_279_1102)">
<path fill-rule="evenodd" clip-rule="evenodd" d="M42 21C42 32.598 32.598 42 21 42C9.40202 42 0 32.598 0 21C0 9.40202 9.40202 0 21 0C32.598 0 42 9.40202 42 21ZM21.7525 15.5031C19.71 16.3526 15.6277 18.111 9.50581 20.7783C8.51171 21.1736 7.99095 21.5603 7.94355 21.9385C7.86343 22.5776 8.66375 22.8292 9.75358 23.1719C9.90183 23.2185 10.0554 23.2668 10.2129 23.318C11.2851 23.6665 12.7274 24.0743 13.4773 24.0905C14.1574 24.1052 14.9165 23.8248 15.7546 23.2493C21.4745 19.3882 24.4272 17.4366 24.6125 17.3945C24.7433 17.3649 24.9246 17.3275 25.0473 17.4367C25.1701 17.5458 25.1581 17.7525 25.1451 17.8079C25.0658 18.1459 21.9242 21.0666 20.2985 22.5781C19.7916 23.0492 19.4321 23.3835 19.3586 23.4598C19.194 23.6308 19.0262 23.7925 18.865 23.948C17.8688 24.9083 17.1218 25.6284 18.9063 26.8043C19.7639 27.3694 20.4501 27.8367 21.1346 28.3029C21.8823 28.8121 22.628 29.3199 23.5928 29.9524C23.8386 30.1135 24.0734 30.2808 24.3021 30.4439C25.1721 31.0641 25.9538 31.6214 26.9195 31.5325C27.4807 31.4809 28.0603 30.9533 28.3547 29.3796C29.0504 25.6604 30.4179 17.6022 30.7339 14.2816C30.7616 13.9907 30.7267 13.6184 30.6988 13.4549C30.6708 13.2915 30.6123 13.0586 30.3999 12.8862C30.1483 12.6821 29.7599 12.639 29.5861 12.6421C28.7963 12.656 27.5845 13.0774 21.7525 15.5031Z" fill="#1A1A1A"/>
</g>
<defs>
<clipPath id="clip0_279_1102">
<rect width="42" height="42" fill="white"/>
</clipPath>
</defs>
</svg>
