<svg width="32" height="25" viewBox="0 0 32 25" fill="none" xmlns="http://www.w3.org/2000/svg">
<path d="M30.5119 23.9465V24.0087H30.57C30.5809 24.0089 30.5916 24.0061 30.6011 24.0008C30.6049 23.9981 30.6079 23.9945 30.61 23.9904C30.612 23.9862 30.613 23.9816 30.6128 23.977C30.613 23.9724 30.612 23.9679 30.6099 23.9639C30.6079 23.9598 30.6048 23.9563 30.6011 23.9538C30.5917 23.9482 30.5809 23.9454 30.57 23.9459H30.5119V23.9465ZM30.5706 23.9025C30.5955 23.9009 30.6201 23.9081 30.6403 23.9227C30.6484 23.9293 30.6548 23.9377 30.6591 23.9473C30.6633 23.9569 30.6653 23.9673 30.6647 23.9778C30.6651 23.9867 30.6635 23.9957 30.6602 24.0041C30.6568 24.0124 30.6517 24.0199 30.6451 24.0261C30.6295 24.0397 30.61 24.0478 30.5894 24.0493L30.6672 24.138H30.6073L30.5357 24.0499H30.5125V24.138H30.4624V23.9026H30.5714L30.5706 23.9025ZM30.555 24.2192C30.5813 24.2194 30.6073 24.2141 30.6314 24.2036C30.6547 24.1936 30.6758 24.1793 30.6937 24.1615C30.7116 24.1436 30.7259 24.1225 30.7359 24.0993C30.7563 24.0499 30.7563 23.9945 30.7359 23.9452C30.7258 23.9221 30.7115 23.9009 30.6937 23.883C30.6758 23.8652 30.6547 23.8509 30.6314 23.8408C30.6072 23.8309 30.5812 23.8259 30.555 23.8262C30.5284 23.826 30.5019 23.8309 30.4772 23.8408C30.4535 23.8507 30.4318 23.865 30.4135 23.883C30.386 23.9112 30.3674 23.9469 30.36 23.9857C30.3526 24.0244 30.3568 24.0644 30.372 24.1008C30.3815 24.1242 30.3956 24.1453 30.4135 24.163C30.4319 24.1811 30.4535 24.1954 30.4772 24.2052C30.5018 24.2157 30.5283 24.221 30.555 24.2208V24.2192ZM30.555 23.7696C30.6234 23.7695 30.6891 23.7963 30.7379 23.8443C30.7614 23.8673 30.7801 23.8947 30.793 23.925C30.8063 23.9561 30.8131 23.9896 30.8131 24.0234C30.8131 24.0572 30.8063 24.0907 30.793 24.1218C30.7798 24.1519 30.7611 24.1793 30.7379 24.2026C30.714 24.2254 30.6862 24.2439 30.6559 24.257C30.624 24.2705 30.5897 24.2774 30.555 24.2772C30.52 24.2775 30.4852 24.2706 30.4529 24.257C30.4222 24.2442 30.3942 24.2257 30.3703 24.2026C30.347 24.1785 30.3286 24.1502 30.316 24.1192C30.3027 24.0881 30.2958 24.0546 30.2958 24.0208C30.2958 23.9869 30.3027 23.9535 30.316 23.9224C30.3288 23.8921 30.3475 23.8646 30.3711 23.8416C30.3946 23.8181 30.4228 23.7995 30.4537 23.7872C30.486 23.7736 30.5207 23.7667 30.5558 23.7669L30.555 23.7696ZM6.72526 22.8606C6.72526 22.4118 7.0194 22.043 7.50013 22.043C7.95955 22.043 8.26956 22.3959 8.26956 22.8606C8.26956 23.3253 7.95955 23.6781 7.50013 23.6781C7.0194 23.6781 6.72526 23.3094 6.72526 22.8606ZM8.79325 22.8606V21.5833H8.23781V21.8945C8.06164 21.6645 7.79443 21.5203 7.43104 21.5203C6.71515 21.5203 6.15333 22.0816 6.15333 22.8612C6.15333 23.6408 6.71484 24.2021 7.43104 24.2021C7.79427 24.2021 8.06164 24.0577 8.23781 23.8279V24.138H8.79262V22.8606H8.79325ZM27.5607 22.8606C27.5607 22.4118 27.8549 22.043 28.3358 22.043C28.7956 22.043 29.1052 22.3959 29.1052 22.8606C29.1052 23.3253 28.7956 23.6781 28.3358 23.6781C27.855 23.6781 27.5607 23.3094 27.5607 22.8606ZM29.6293 22.8606V20.5581H29.0734V21.8945C28.8973 21.6645 28.6301 21.5203 28.2667 21.5203C27.5508 21.5203 26.989 22.0816 26.989 22.8612C26.989 23.6408 27.5505 24.2021 28.2667 24.2021C28.6301 24.2021 28.8973 24.0577 29.0734 23.8279V24.138H29.6293V22.8606ZM15.6869 22.0168C16.0449 22.0168 16.2748 22.2411 16.3334 22.6361H15.0081C15.0674 22.2674 15.2913 22.0168 15.6871 22.0168H15.6869ZM15.6981 21.5189C14.9496 21.5189 14.4259 22.0634 14.4259 22.8598C14.4259 23.6717 14.9706 24.2007 15.7353 24.2007C16.1201 24.2007 16.4724 24.1047 16.7824 23.8429L16.5102 23.4314C16.2961 23.6025 16.0234 23.6985 15.7671 23.6985C15.4091 23.6985 15.0833 23.5328 15.0031 23.0731H16.8998C16.9052 23.004 16.9108 22.9343 16.9108 22.8597C16.9052 22.0636 16.4128 21.5188 15.6978 21.5188L15.6981 21.5189ZM22.4038 22.8597C22.4038 22.4108 22.698 22.0421 23.1787 22.0421C23.6381 22.0421 23.9481 22.395 23.9481 22.8597C23.9481 23.3243 23.6381 23.6772 23.1787 23.6772C22.698 23.6772 22.4037 23.3085 22.4037 22.8597H22.4038ZM24.4717 22.8597V21.5833H23.9165V21.8945C23.7398 21.6645 23.4732 21.5203 23.1098 21.5203C22.3939 21.5203 21.8321 22.0816 21.8321 22.8612C21.8321 23.6408 22.3936 24.2021 23.1098 24.2021C23.4732 24.2021 23.7398 24.0577 23.9165 23.8279V24.138H24.4718V22.8606L24.4717 22.8597ZM19.2672 22.8597C19.2672 23.6342 19.8066 24.2005 20.6298 24.2005C21.0146 24.2005 21.2709 24.115 21.548 23.8961L21.2813 23.4472C21.0728 23.5971 20.8538 23.6772 20.6121 23.6772C20.1687 23.6717 19.8427 23.3513 19.8427 22.8597C19.8427 22.368 20.1687 22.0477 20.6121 22.0421C20.8532 22.0421 21.0721 22.1222 21.2813 22.2721L21.548 21.8232C21.2704 21.6043 21.0141 21.5188 20.6298 21.5188C19.8066 21.5188 19.2672 22.0849 19.2672 22.8597ZM26.4276 21.5188C26.1072 21.5188 25.8985 21.6686 25.7542 21.8929V21.5833H25.2037V24.1366H25.7598V22.7053C25.7598 22.2828 25.9414 22.048 26.3045 22.048C26.4234 22.0463 26.5415 22.0681 26.6519 22.1123L26.8231 21.5889C26.7001 21.5405 26.5398 21.5192 26.4273 21.5192L26.4276 21.5188ZM11.5393 21.7864C11.2721 21.6102 10.9039 21.5192 10.4977 21.5192C9.85058 21.5192 9.43397 21.8293 9.43397 22.3366C9.43397 22.7529 9.74413 23.0098 10.3153 23.0899L10.5777 23.1272C10.8822 23.17 11.026 23.2501 11.026 23.3944C11.026 23.5918 10.8237 23.7044 10.4438 23.7044C10.0591 23.7044 9.78148 23.5815 9.59426 23.4373L9.33328 23.8703C9.63784 24.0946 10.0226 24.2016 10.4392 24.2016C11.1768 24.2016 11.6044 23.8544 11.6044 23.3682C11.6044 22.9194 11.2679 22.6846 10.712 22.6045L10.4502 22.5665C10.2098 22.5354 10.0171 22.4871 10.0171 22.3159C10.0171 22.1292 10.1987 22.0169 10.5034 22.0169C10.8295 22.0169 11.1451 22.1398 11.2998 22.2358L11.5402 21.787L11.5393 21.7864ZM18.7061 21.5197C18.3857 21.5197 18.177 21.6695 18.0333 21.8939V21.5833H17.4829V24.1366H18.0383V22.7053C18.0383 22.2828 18.2199 22.048 18.583 22.048C18.7019 22.0463 18.82 22.0681 18.9304 22.1123L19.1016 21.5889C18.9786 21.5405 18.8183 21.5192 18.7058 21.5192L18.7061 21.5197ZM13.9663 21.5833H13.0581V20.8087H12.4966V21.5833H11.9785V22.0908H12.4966V23.2556C12.4966 23.848 12.7266 24.2008 13.3836 24.2008C13.6247 24.2008 13.9024 24.1262 14.0785 24.0034L13.9181 23.528C13.7523 23.624 13.5707 23.6724 13.4263 23.6724C13.1487 23.6724 13.0581 23.5012 13.0581 23.245V22.0913H13.9663V21.5833ZM5.66217 24.1372V22.5348C5.66217 21.9313 5.27746 21.5253 4.65728 21.5199C4.33124 21.5144 3.99493 21.6158 3.75946 21.9741C3.58329 21.691 3.30565 21.5199 2.91533 21.5199C2.64252 21.5199 2.37593 21.6 2.16723 21.899V21.5833H1.61133V24.1366H2.17159V22.7209C2.17159 22.2777 2.41748 22.0421 2.79721 22.0421C3.16605 22.0421 3.35265 22.2825 3.35265 22.7153V24.1363H3.91416V22.7206C3.91416 22.2773 4.17047 22.0418 4.53916 22.0418C4.91842 22.0418 5.09942 22.2822 5.09942 22.715V24.136L5.66217 24.1372Z" fill="#1A1A1A"/>
<path d="M30.8312 15.6468V15.2733H30.7339L30.6214 15.5296L30.5095 15.2733H30.4119V15.6468H30.481V15.3654L30.5862 15.6082H30.6578L30.763 15.3648V15.6468H30.8315H30.8312ZM30.2141 15.6468V15.3373H30.3386V15.2743H30.0205V15.3373H30.145V15.6468H30.2135H30.2141Z" fill="#FF8800"/>
<path d="M19.7757 17.2475H11.3584V2.13257H19.7758L19.7757 17.2475Z" fill="#FF5F00"/>
<path d="M11.89 9.69027C11.89 6.62421 13.3267 3.89295 15.564 2.13281C13.8705 0.798511 11.7759 0.074341 9.61921 0.0775251C4.30654 0.0775251 0 4.38123 0 9.69027C0 14.9993 4.30654 19.303 9.61921 19.303C11.7759 19.3062 13.8706 18.5821 15.5642 17.2477C13.327 15.4879 11.89 12.7565 11.89 9.69027Z" fill="#EB001B"/>
<path d="M31.1285 9.69039C31.1285 14.9994 26.8219 19.3031 21.5092 19.3031C19.3523 19.3063 17.2574 18.5821 15.5635 17.2478C17.8014 15.4877 19.2382 12.7566 19.2382 9.69039C19.2382 6.62418 17.8014 3.89307 15.5635 2.13293C17.2573 0.798673 19.3522 0.0745189 21.5091 0.0776468C26.8218 0.0776468 31.1283 4.38135 31.1283 9.69039" fill="#FF8800"/>
</svg>
