<svg width="31" height="18" viewBox="0 0 31 18" fill="none" xmlns="http://www.w3.org/2000/svg">
<path d="M2 10.7801C9.04199 10.7801 15.8727 10.4719 22.9032 10.4719C24.3107 10.4719 25.7182 10.4719 27.1257 10.4719C27.5126 10.4719 28.6648 10.6854 28.6961 10.1636C28.7476 9.30311 28.7365 8.84444 27.8934 8.46834C25.6319 7.45949 23.8852 5.94557 21.7865 4.85514C20.7798 4.33211 19.6088 3.4029 18.8028 2.61188C16.6507 0.499731 20.2981 3.83178 20.9141 4.61541C21.9958 5.99162 24.319 8.12167 26.0439 8.60533C26.7722 8.80954 28.7486 9.49647 28.9927 10.3349C29.5969 12.4103 26.9893 12.0959 26.1137 12.8692C25.4032 13.4968 23.5057 13.4487 23.0428 14.0166C22.8449 14.2593 20.2697 15.3612 19.9021 15.4036C18.5932 15.5547 17.7121 17.4641 16.4473 16.6366" stroke="#DDDDDD" stroke-width="2.13487" stroke-linecap="round"/>
</svg>
