<svg width="31" height="18" viewBox="0 0 31 18" fill="none" xmlns="http://www.w3.org/2000/svg">
<path d="M29 10.7801C21.958 10.7801 15.1273 10.4719 8.0968 10.4719C6.6893 10.4719 5.28179 10.4719 3.87429 10.4719C3.48737 10.4719 2.33521 10.6854 2.30393 10.1636C2.25235 9.30311 2.26346 8.84444 3.10656 8.46834C5.36806 7.45949 7.11482 5.94557 9.2135 4.85514C10.2202 4.33211 11.3912 3.4029 12.1972 2.61188C14.3493 0.499731 10.7019 3.83178 10.0859 4.61541C9.00417 5.99162 6.68096 8.12167 4.95609 8.60533C4.22783 8.80954 2.25139 9.49647 2.00731 10.3349C1.40311 12.4103 4.01073 12.0959 4.8863 12.8692C5.59676 13.4968 7.49431 13.4487 7.95722 14.0166C8.1551 14.2593 10.7303 15.3612 11.0979 15.4036C12.4068 15.5547 13.2879 17.4641 14.5527 16.6366" stroke="#DDDDDD" stroke-width="2.13487" stroke-linecap="round"/>
</svg>
