<svg width="47" height="50" viewBox="0 0 47 50" fill="none" xmlns="http://www.w3.org/2000/svg">
<path d="M41.1395 23.1608C41.1162 23.0673 41.0426 23.0168 40.9544 23.0006C40.8061 22.9725 40.6577 22.975 40.512 22.973C39.7969 22.9712 39.0801 22.9927 38.3631 23.0448C36.9626 23.1446 35.5942 23.4043 34.2846 23.932C33.624 24.1954 33.0253 24.5694 32.4374 24.956C32.4374 24.956 32.4374 24.956 32.4346 24.9605C32.3923 24.9901 32.3455 25.017 32.3032 25.0466C32.2906 25.0574 32.2735 25.0654 32.2609 25.0762C31.5287 25.6514 30.8468 26.2751 30.2826 26.988C30.6171 26.504 30.8815 25.984 31.171 25.4729C31.6166 24.6826 32.0353 23.876 32.4153 23.0524C33.3937 20.9307 34.1591 18.736 34.6153 16.4349C34.9427 14.7842 35.1181 13.1217 35.0597 11.4409C35.0407 10.9646 35.0343 10.4774 34.8245 10.0332C34.7834 9.89828 34.7395 9.7679 34.7028 9.63574C34.2448 8.13059 33.2336 7.19815 31.7367 6.78726C30.2605 6.38269 28.8435 6.6316 27.5014 7.30484C25.224 8.44332 23.5499 10.2567 22.0536 12.2626C21.3884 13.1533 20.813 14.0981 20.2421 15.0455C20.1126 15.0777 20.0755 15.19 20.0142 15.2816C19.7536 15.6632 19.574 16.0935 19.3404 16.4914C18.9038 17.226 18.5302 17.9985 18.1251 18.752C17.9871 19.0116 17.8239 19.2621 17.7218 19.5433C17.7471 19.4607 17.7608 19.3771 17.7699 19.2908C17.8782 18.5117 17.9047 17.7262 17.95 16.9399C18.034 15.6323 18.0757 14.3237 17.9528 13.014C17.8211 11.6378 17.5282 10.3055 16.8647 9.08046C16.8091 8.97973 16.7823 8.84128 16.6313 8.81772C16.4859 8.60182 16.3405 8.38593 16.1952 8.17003C16.1512 8.10077 16.1019 8.04049 16.0029 8.07272C15.9183 8.10137 15.8921 8.16515 15.8803 8.25591C15.852 8.49584 15.8165 8.73757 15.7693 8.97838C15.2702 11.737 13.9505 14.0999 12.3063 16.3106C11.5275 17.3593 10.737 18.4072 10.0741 19.5379C9.02511 21.3296 8.67573 23.23 9.11761 25.2699C9.51756 27.0949 10.2163 28.7999 11.1068 30.4306C11.1264 30.5402 11.1388 30.6517 11.2016 30.7506C11.6026 31.3956 11.9838 32.0531 12.4622 32.6406C12.7198 32.9546 12.8299 33.2594 12.7582 33.6629C12.6256 34.4518 12.9583 35.0679 13.5394 35.5765C13.8367 35.8348 14.1502 36.0662 14.4583 36.3066C14.4583 36.3066 14.4628 36.3093 14.4673 36.312C14.4987 36.3309 14.532 36.357 14.5634 36.3759C14.9327 36.6164 15.3047 36.8524 15.7037 37.0434C15.3559 36.8893 14.99 36.7854 14.6449 36.6268L14.6404 36.6241C14.6197 36.6178 14.5945 36.6088 14.5738 36.6024C14.1397 36.4392 13.729 36.2167 13.3391 35.9699C12.7272 35.5835 12.1604 35.1325 11.6333 34.6258C11.5587 34.5565 11.4905 34.4665 11.3637 34.4942C11.1999 34.5426 11.1179 34.6278 11.2463 34.7907C11.6268 35.2765 11.7078 35.833 11.6492 36.4279C11.6176 36.5006 11.5681 36.5626 11.5571 36.6417C11.4814 37.2752 11.2853 37.8852 11.2024 38.5205C11.1178 39.1181 11.0988 39.7185 11.2876 40.3092C11.5641 41.1913 12.3359 41.6983 13.2364 41.5548C13.6673 41.4897 14.0499 41.2916 14.3868 41.017C14.7785 40.702 15.111 40.3331 15.439 39.9614C15.6976 39.6642 15.9562 39.3671 16.2867 39.1437C16.2939 39.1419 16.2993 39.1329 16.3065 39.1312C16.3191 39.1204 16.3335 39.1168 16.3461 39.106C16.3857 39.0809 16.4253 39.0558 16.4623 39.0352C17.2734 38.5626 18.1191 38.4289 19.0116 38.7761C19.1851 38.8437 19.3523 38.9014 19.5369 38.7983C19.6278 38.749 19.7257 38.7896 19.8174 38.8203C20.5887 39.0639 21.3664 39.2869 22.1431 39.4911C22.171 39.4956 22.2007 39.5073 22.2285 39.5119C22.233 39.5146 22.2447 39.5155 22.2492 39.5182C23.1842 39.7441 24.1201 39.9889 25.0597 40.1869C25.2332 40.224 25.4032 40.2467 25.5768 40.2226C25.6631 40.2317 25.7522 40.2363 25.8358 40.2499C27.0255 40.4088 28.0774 40.1055 28.9988 39.3382C29.7463 38.7172 30.3555 37.9702 30.9207 37.1845C31.037 37.022 31.2216 36.9189 31.3316 36.7465C31.7897 36.037 32.2145 35.3015 32.5872 34.5407C33.208 33.2868 33.6923 31.9753 34.2286 30.6889C34.6954 29.5687 35.182 28.4666 35.8825 27.4564C36.4235 26.6805 37.055 26.0082 37.7971 25.4267C38.6896 24.7277 39.669 24.179 40.6683 23.6482C40.806 23.572 40.9455 23.503 41.0626 23.3899C41.1266 23.3243 41.1672 23.257 41.1395 23.1608ZM25.0003 9.40382C26.074 8.43454 27.2464 7.61638 28.6475 7.1805C29.8101 6.81531 30.9749 6.78177 32.1254 7.22906C32.7807 7.48247 33.3377 7.87865 33.764 8.44094C33.8044 8.49582 33.8996 8.54088 33.8473 8.63788C33.8519 8.61003 33.851 8.59115 33.8295 8.56596C33.4363 8.09089 32.9376 7.76039 32.3696 7.53496C31.273 7.08954 30.1962 7.20049 29.1512 7.71592C29.0017 7.79123 28.8523 7.86653 28.6841 7.88159C28.3171 7.91167 27.9572 8.00108 27.6116 8.11747C26.2779 8.56333 25.2621 9.36551 24.74 10.7094C24.675 10.8783 24.5776 11.0094 24.4282 11.1152C24.167 11.2947 23.9535 11.5272 23.7687 11.7831C23.2206 12.5301 22.713 13.3015 22.1964 14.0675C21.4318 15.2044 20.7589 16.4024 20.0527 17.5744C20.0121 17.6418 19.9733 17.7163 19.9328 17.7837C19.9346 17.7603 19.9409 17.7397 19.9428 17.7163C20.0319 17.0909 20.1472 16.4628 20.1662 15.8319C21.4859 13.4689 22.9745 11.232 25.0003 9.40382ZM16.1396 8.60766C16.2374 8.77047 16.2975 8.87391 16.3621 8.98005L16.0487 9.2259C16.0723 9.04438 16.1005 8.86556 16.1396 8.60766ZM9.27057 24.1322C9.10296 22.6733 9.45415 21.3184 10.1452 20.0395C10.7424 18.9365 11.4843 17.939 12.2378 16.9423C13.4871 15.2956 14.5971 13.5651 15.3378 11.6247C15.3676 11.5448 15.3974 11.4648 15.4344 11.3831C15.3969 11.7704 15.4899 12.1444 15.4973 12.5282C15.5147 14.013 15.0924 15.4046 14.5847 16.7755C14.0399 18.2281 13.3514 19.6248 12.7474 21.054C11.9077 23.0266 11.3422 25.0724 11.1714 27.2148C11.1025 28.1216 11.1675 29.0294 11.193 29.9318C10.2265 28.1025 9.50553 26.2006 9.27057 24.1322ZM11.9098 35.4773C11.9682 35.543 12.0319 35.5997 12.0876 35.6699C12.347 35.9911 12.347 35.9911 11.9806 36.1623C11.9567 35.9277 11.9346 35.7002 11.9098 35.4773ZM27.63 39.7813C27.1908 39.9515 26.741 40.0174 26.2761 39.9764C26.3769 39.9208 26.4983 39.9326 26.6009 39.8842C27.7819 39.3159 28.9709 38.7647 29.9815 37.9104C29.329 38.6987 28.6101 39.4042 27.63 39.7813Z" fill="#FEFEFE"/>
<path d="M11.1884 29.9271C11.1656 29.0202 11.0933 28.1142 11.1667 27.2102C11.3375 25.0679 11.9047 23.0294 12.7399 21.0542C13.3439 19.6251 14.0369 18.2312 14.5771 16.7759C15.0892 15.4078 15.5115 14.0163 15.4896 12.5288C15.4822 12.1451 15.392 11.7666 15.4268 11.3838C15.6601 12.2154 15.6102 13.0602 15.4739 13.8958C15.2613 15.2238 14.8096 16.4815 14.2913 17.7174C13.5618 19.4564 12.7092 21.1458 12.1162 22.9425C11.4112 25.0877 11.074 27.2829 11.261 29.5425C11.2832 29.6783 11.2866 29.8149 11.1884 29.9271Z" fill="#DDDDDD"/>
<path d="M33.8446 8.63898C32.9386 7.74534 31.88 7.23707 30.5729 7.37467C30.089 7.42617 29.6337 7.56219 29.2043 7.78722C28.9882 7.90198 28.7624 7.9619 28.515 7.99663C27.0109 8.21756 25.7848 8.9116 25.045 10.2714C24.7871 10.7402 24.495 11.1334 24.1193 11.5131C23.4806 12.1567 23.0359 12.9659 22.5256 13.7112C21.5898 15.0815 20.7529 16.5112 19.9069 17.9355C19.8673 17.9301 19.8521 17.9148 19.8395 17.895C19.8279 17.8635 19.8378 17.8267 19.8424 17.7988C19.9622 17.1429 19.9705 16.4688 20.1577 15.8229C20.1405 16.461 20.0234 17.0818 19.9343 17.7073C19.9324 17.7306 19.9261 17.7513 19.9242 17.7747C19.9648 17.7073 20.0036 17.6328 20.0442 17.5654C20.7548 16.3962 21.4232 15.1954 22.1878 14.0586C22.7044 13.2926 23.2075 12.5185 23.7601 11.7742C23.9493 11.521 24.1629 11.2885 24.4195 11.1064C24.569 11.0005 24.6663 10.8694 24.7314 10.7005C25.2579 9.35939 26.2737 8.55723 27.6028 8.10869C27.9484 7.9923 28.3056 7.90738 28.6753 7.87281C28.8435 7.85775 28.9929 7.78245 29.1424 7.70715C30.1874 7.19173 31.2641 7.08078 32.3607 7.52619C32.926 7.75611 33.4246 8.0866 33.8205 8.55716C33.8483 8.59225 33.8492 8.61112 33.8446 8.63898Z" fill="#DDDDDD"/>
<path d="M29.9794 37.9083C28.9686 38.7629 27.7765 39.3188 26.5979 39.8828C26.4953 39.9312 26.3756 39.9265 26.273 39.9749C26.4396 39.8304 26.6584 39.7722 26.8537 39.6817C27.945 39.1814 28.9689 38.5489 29.9794 37.9083Z" fill="#DDDDDD"/>
<path d="M30.9251 37.1807C31.3018 36.6671 31.6319 36.1193 31.9458 35.5679C32.5068 34.5656 32.9816 33.5237 33.416 32.4575C33.9 31.2682 34.3633 30.0725 34.9156 28.9121C35.9381 26.7682 37.5631 25.219 39.6379 24.1118C40.0799 23.876 40.5228 23.6285 40.963 23.3855C41.0467 23.338 41.1394 23.2959 41.1045 23.1709C41.0714 23.0531 40.9833 23.0674 40.8915 23.0673C39.0956 23.0515 37.3049 23.1184 35.5594 23.5979C34.4824 23.8922 33.4762 24.3331 32.5668 24.979C32.4893 25.0364 32.4038 25.0767 32.3246 25.127C32.2717 25.0217 32.3366 24.9445 32.3853 24.8637C32.663 24.4435 32.9299 24.0106 33.1672 23.566C33.2114 23.4825 33.2538 23.3918 33.3734 23.3965C34.3315 22.6697 35.3273 22.0023 36.3231 21.335C36.8795 20.96 37.4502 20.612 38.0021 20.2344C38.8053 19.6836 39.6227 19.7287 40.4106 20.2087C41.212 20.6968 41.5552 21.4477 41.4844 22.3778C41.4431 22.9035 41.2526 23.3823 40.85 23.7152C39.509 24.8234 38.6172 26.2629 37.7586 27.7285C36.8432 29.2884 36.0518 30.9168 35.0959 32.4524C33.985 34.2251 32.6999 35.8501 31.0142 37.1242C30.9863 37.1502 30.9521 37.1663 30.9251 37.1807Z" fill="#6E29FF"/>
<path d="M20.2445 15.0466C19.3461 16.5985 18.5223 18.1892 17.6842 19.7834C17.6231 19.6917 17.6674 19.6081 17.6738 19.5263C17.8516 17.5043 18.025 15.4796 17.9006 13.4411C17.8026 11.816 17.467 10.2499 16.6311 8.82339C17.9455 8.05393 19.5997 9.0366 19.8619 10.3384C20.1563 11.8001 20.2879 13.268 20.2414 14.7572C20.2385 14.8533 20.2429 14.9477 20.2445 15.0466Z" fill="#6E29FF"/>
<path d="M22.2936 39.4561C22.7973 39.5143 23.2773 39.6929 23.7745 39.8023C24.3805 39.9343 24.983 40.0825 25.5863 40.219C24.1812 40.8239 22.7093 41.0216 21.1839 40.9423C20.0965 40.8879 19.0201 40.7238 17.9546 40.5112C17.7091 40.4615 17.5633 40.5206 17.4056 40.7011C16.9009 41.2847 16.3038 41.7576 15.5837 42.0587C13.8051 42.8061 11.7508 42.1518 10.8486 40.5507C10.0513 39.1412 10.4078 37.3304 11.6605 36.4197C11.6461 36.9617 11.4905 37.4738 11.388 37.9995C11.2484 38.6987 11.1465 39.396 11.3324 40.1136C11.6488 41.3256 12.7039 41.8195 13.8319 41.2682C14.3945 40.9948 14.7991 40.5467 15.2083 40.1014C15.5381 39.7369 15.8329 39.3391 16.2632 39.0718C16.5285 39.1396 16.7026 39.3483 16.9066 39.5077C18.1669 40.4738 20.2538 40.9519 21.9804 39.6103C22.0659 39.5394 22.156 39.4407 22.2936 39.4561Z" fill="#6E29FF"/>
<path d="M14.6254 36.7101C13.4793 36.2654 12.4991 35.5658 11.6126 34.7206C11.5318 34.6414 11.451 34.5622 11.3675 34.4874C10.8389 33.16 10.8232 31.8045 11.1079 30.4277C11.6219 31.312 12.1755 32.1711 12.8209 32.9693C12.9026 33.0674 12.9069 33.1618 12.886 33.2777C12.8116 33.7162 12.7649 34.1593 12.9217 34.5901C13.0944 35.0856 13.4753 35.4187 13.8642 35.7383C14.0565 35.8967 14.2821 36.0202 14.4509 36.2074C14.5496 36.3585 14.6986 36.4971 14.6254 36.7101Z" fill="#6E29FF"/>
<path d="M36.2108 26.4054C35.5936 27.1048 35.1291 27.8959 34.6997 28.7204C34.189 29.7101 33.7925 30.7441 33.3798 31.7744C33.0637 32.563 32.7405 33.3535 32.3723 34.1169C32.023 34.8489 31.6261 35.5584 31.1915 36.2391C30.8642 36.7518 30.5234 37.2565 30.1422 37.7368C30.0927 37.7988 30.0323 37.8481 29.9765 37.9002C28.966 38.7545 27.7744 39.3101 26.5962 39.8739C26.4936 39.9223 26.374 39.9177 26.2714 39.9661C25.6527 39.9671 25.0648 39.7848 24.4706 39.6537C23.8395 39.5127 23.2201 39.3421 22.5953 39.1804C22.5866 39.0528 22.6775 38.9729 22.7568 38.8921C23.8576 37.7863 24.7941 36.5571 25.6515 35.256C26.1645 34.4757 26.6748 33.6998 27.1833 32.9168C27.8171 31.9461 28.4375 30.9673 29.0668 29.9939C29.7368 28.9531 30.4157 27.9178 31.0721 26.8689C31.2525 26.5797 31.4948 26.3401 31.7084 26.077C32.1976 25.5393 32.7846 25.1339 33.4085 24.7689C34.7714 23.9797 36.2639 23.6357 37.8066 23.4624C38.5496 23.3771 39.2952 23.3483 40.0434 23.3457C40.1234 23.3449 40.2125 23.319 40.3158 23.3811C39.9738 23.573 39.6461 23.7613 39.3184 23.9496C38.1751 24.6384 37.0992 25.3982 36.2108 26.4054Z" fill="#6E29FF"/>
<path d="M13.0017 32.7367C12.2909 31.8137 11.6844 30.9106 11.1851 29.9312C11.1623 29.0244 11.0901 28.1183 11.1635 27.2143C11.337 25.0675 11.9043 23.0289 12.7395 21.0537C13.3435 19.6246 14.0365 18.2306 14.5768 16.7754C15.089 15.4072 15.5113 14.0156 15.4894 12.5282C15.482 12.1444 15.3918 11.7659 15.4266 11.3831C15.6751 10.6761 15.866 9.95289 16.0408 9.22603L16.3542 8.98018C16.8602 9.75554 17.1375 10.6259 17.3357 11.5159C17.7062 13.1763 17.689 14.8605 17.6152 16.5474C17.5619 17.7633 17.4295 18.9683 17.3088 20.1743C17.2686 20.5661 17.1044 20.8894 16.9419 21.2199C16.5746 21.9717 16.1714 22.7019 15.7996 23.4509C15.4242 24.2162 15.0533 24.9841 14.7031 25.7584C14.2445 26.7734 13.839 27.8019 13.5683 28.881C13.3547 29.7435 13.2417 30.6115 13.2798 31.5031C13.3034 31.921 13.0663 32.2739 13.0017 32.7367Z" fill="#6E29FF"/>
<path d="M16.0053 38.8489C15.4224 39.3794 14.9689 40.0305 14.3753 40.5483C14.0717 40.8185 13.7349 41.032 13.3453 41.1403C12.5687 41.3523 11.9001 40.9685 11.6522 40.2015C11.4303 39.5235 11.4997 38.8494 11.6448 38.1719C11.7844 37.5033 11.9474 36.8366 11.98 36.1526C12.3464 35.9814 12.3464 35.9814 12.087 35.6601C12.0331 35.5972 11.9676 35.5333 11.9092 35.4676C12.0009 35.4677 12.0495 35.4785 12.1151 35.5424C12.5498 35.9385 13.0593 36.2205 13.5526 36.5294C13.965 36.7897 14.4334 36.9368 14.854 37.1836C15.2507 37.7037 15.588 38.2614 16 38.7662C16.0216 38.7914 16.0098 38.821 16.0053 38.8489Z" fill="#6E29FF"/>
<path d="M17.0745 21.6731C16.9255 22.5806 16.7263 23.409 16.4812 24.222C16.1413 25.3449 15.6736 26.4156 15.1602 27.4709C14.6215 28.5783 14.0504 29.6785 13.5718 30.8893C13.5647 30.2916 13.6501 29.7741 13.7678 29.2638C14.0223 28.1812 14.4071 27.1464 14.8495 26.1278C15.401 24.8569 16.0227 23.622 16.6668 22.4006C16.7904 22.1751 16.8726 21.9371 17.0745 21.6731Z" fill="#6E29FF"/>
<path d="M16.8461 24.0506C17.0192 23.2555 17.248 22.4695 17.3753 21.659C17.3934 21.5476 17.435 21.438 17.4343 21.3275C17.4433 20.764 17.7309 20.3069 17.9799 19.8327C18.5167 18.8098 19.0606 17.7851 19.6019 16.7649C19.7733 16.4398 19.9689 16.1354 20.1538 15.8184C20.1366 16.4564 20.0195 17.0773 19.9304 17.7026C19.9285 17.726 19.9222 17.7467 19.9204 17.77C19.9113 17.8257 19.9094 17.8796 19.903 17.9309C19.4005 18.8765 18.8729 19.8132 18.3929 20.7724C17.8876 21.7837 17.3869 22.7977 16.9544 23.8405C16.9318 23.9186 16.8822 23.9806 16.8461 24.0506Z" fill="#6E29FF"/>
<path d="M15.1079 28.2656C14.9009 28.9242 14.6803 29.5746 14.485 30.234C14.2127 31.1531 14.07 32.1012 13.9973 33.0547C13.7588 32.6481 13.648 32.2022 13.611 31.7456C13.5925 31.502 13.7367 31.2828 13.8226 31.0592C14.1947 30.0962 14.6342 29.1737 15.1079 28.2656Z" fill="#6E29FF"/>
<path d="M14.0641 34.4518C14.0598 34.8654 14.1915 35.2567 14.2565 35.657C13.3415 35.021 12.9421 34.4441 13.1724 33.4014C13.4777 33.7686 13.7732 34.1116 14.0641 34.4518Z" fill="#6E29FF"/>
<path d="M14.0209 33.7409C14.019 33.7949 14.0171 33.8488 14.0125 33.9072C13.7808 33.6516 13.5365 33.4067 13.3246 33.1385C13.1297 32.8928 13.3595 32.6638 13.4067 32.4229C13.558 32.8933 13.7859 33.318 14.0209 33.7409Z" fill="#6E29FF"/>
<path d="M33.3681 23.4001C33.0281 23.9848 32.6998 24.5703 32.3193 25.1306C31.4324 25.8206 30.663 26.6303 29.9187 27.5101C29.927 27.3744 30.0009 27.3026 30.0469 27.2262C30.6735 26.2268 31.2463 25.1949 31.776 24.1431C32.561 22.5965 33.2345 21.0013 33.7552 19.3447C34.5616 16.8077 35.0192 14.22 34.9633 11.5498C34.9516 11.0411 34.8733 10.5414 34.8066 10.0425C35.1288 10.4626 35.2872 10.9616 35.4599 11.457C36.2449 13.7093 36.1701 15.9767 35.5701 18.2524C35.1104 20.0007 34.3657 21.6327 33.4782 23.1972C33.4403 23.26 33.4042 23.3301 33.3681 23.4001Z" fill="#FF8800"/>
<path d="M29.2476 27.8939C28.8365 28.5153 28.4505 29.1457 27.9927 29.7329C27.5033 30.3622 26.934 30.9313 26.3736 31.5058C24.7142 33.2238 22.9452 34.8087 21.0219 36.2335C20.4897 36.6291 19.91 36.9411 19.2899 37.1983C18.7769 37.4097 18.3382 37.3049 17.8772 37.0643C16.3703 36.2742 15.1518 35.1375 14.0035 33.9147C13.982 33.8589 13.9255 33.8004 14.0119 33.7484C14.8015 34.8351 15.9066 35.4998 17.0793 36.0828C17.127 36.1053 17.1773 36.1234 17.2231 36.1387C17.3103 36.1667 17.3814 36.1299 17.4202 36.0554C17.4626 35.9646 17.4106 35.9089 17.3315 35.8674C17.1554 35.7737 16.9748 35.6773 16.7959 35.5881C15.8129 35.0764 14.9055 34.4695 14.2613 33.5375C14.1555 33.3882 14.0793 33.2201 13.9905 33.0627C13.9075 32.7129 13.9674 32.3697 14.0156 32.0256C14.1957 30.8125 14.516 29.641 14.9882 28.5119C15.009 28.4571 15.0477 28.4131 15.073 28.361C15.0892 28.334 15.0983 28.3089 15.101 28.2738C15.7868 26.9122 16.3926 25.5209 16.8321 24.0601C17.2442 22.797 17.8649 21.6348 18.4541 20.4537C18.8782 19.6077 19.332 18.7733 19.7947 17.9444C19.8073 17.9336 19.8182 17.9157 19.8263 17.9022C19.8551 17.8645 19.8822 17.8196 19.911 17.7819C19.9516 17.7145 19.9904 17.64 20.031 17.5726C20.7416 16.4034 21.41 15.2026 22.1745 14.0658C22.6911 13.2999 23.1942 12.5258 23.7468 11.7815C23.9361 11.5283 24.1496 11.2958 24.4062 11.1136C24.5557 11.0078 24.653 10.8767 24.7181 10.7078C25.2446 9.36668 26.2604 8.56451 27.5895 8.11595C27.935 7.99956 28.2922 7.91464 28.6619 7.88007C28.8301 7.865 28.9795 7.7897 29.1289 7.7144C30.1739 7.19897 31.2506 7.08801 32.3471 7.53339C32.9124 7.7633 33.411 8.09377 33.8069 8.56432C33.8239 8.58681 33.8293 8.60839 33.8247 8.63624C34.1112 8.88197 34.2132 9.23081 34.3233 9.56618C34.6714 10.6137 34.6759 11.693 34.6282 12.7778C34.5149 15.5053 33.9062 18.1306 32.9415 20.6764C32.0074 23.2222 30.7416 25.6175 29.2476 27.8939Z" fill="#FF8800"/>
<path d="M31.7126 26.091C31.2987 26.7475 30.8848 27.4039 30.4619 28.0549C29.5585 29.463 28.6523 30.8755 27.7443 32.2809C26.9924 33.4374 26.2494 34.5994 25.4732 35.7353C24.6231 36.9736 23.702 38.1569 22.6067 39.1926C21.0731 38.8024 19.5548 38.3664 18.0413 37.7497C18.3049 37.7186 18.5172 37.6506 18.7509 37.73C20.4534 38.2768 21.8581 37.7636 23.059 36.5222C23.8454 35.7045 24.5322 34.8084 25.2325 33.9205C25.8381 33.1592 26.4374 32.3879 27.0278 31.6113C27.4081 31.1121 27.74 30.5715 28.1508 30.1029C29.2997 28.7751 30.3471 27.3619 31.6324 26.153C31.6514 26.1215 31.6829 26.1099 31.7126 26.091Z" fill="#FF8800"/>
<path d="M22.2953 39.4568C20.3053 41.2457 17.7275 40.5457 16.2602 39.0697C17.1832 38.4317 18.163 38.2991 19.2021 38.7588C19.3136 38.8075 19.4215 38.8418 19.4999 38.7116C19.5324 38.6577 19.5693 38.6371 19.6287 38.6605C20.5007 38.9708 21.4098 39.1689 22.2953 39.4568Z" fill="#FF8800"/>
<path d="M19.2973 37.5333C20.7893 36.987 21.9485 35.9468 23.1346 34.9535C24.1217 34.1279 25.0629 33.2564 25.9854 32.3553C26.0106 32.3338 26.025 32.2996 26.097 32.3123C25.7752 32.7244 25.4696 33.1401 25.147 33.5333C24.4756 34.353 23.8438 35.2087 23.1212 35.9915C22.5347 36.6297 21.9033 37.2104 21.0511 37.487C20.4716 37.6768 19.8906 37.676 19.2973 37.5333Z" fill="#FF8800"/>
<path d="M14.0662 34.4512C14.5127 34.8483 14.9232 35.2849 15.3796 35.6757C16.1181 36.3096 16.9098 36.8653 17.7602 37.334C17.7871 37.3502 17.8186 37.3691 17.886 37.4096C17.5188 37.4703 17.2193 37.4187 16.9254 37.2663C15.9976 36.794 15.0916 36.2858 14.2586 35.6562C14.0585 35.3278 14.0339 34.9519 13.9994 34.5824C13.9959 34.5374 14.0167 34.4826 14.0662 34.4512Z" fill="#FF8800"/>
<path d="M16.0054 38.8504C15.551 38.3446 15.1362 37.8136 14.8584 37.1875C15.611 37.4321 16.3754 37.6165 17.1588 37.7389C17.5123 37.7924 17.8367 38.0059 18.1747 38.1663C17.3713 38.1482 16.6458 38.3666 16.0054 38.8504Z" fill="#FF8800"/>
<path d="M14.6268 36.7104C14.5623 36.5431 14.4779 36.3883 14.4521 36.2075C14.969 36.5184 15.4904 36.832 16.0072 37.1429C15.5242 37.0604 15.0646 36.9187 14.6268 36.7104Z" fill="#FF8800"/>
<path d="M25.1633 14.5871C24.8909 14.46 24.7104 14.2412 24.7523 13.887C24.8025 13.4582 25.2601 13.207 25.652 13.3999C25.7743 13.4612 25.8957 13.5342 26.0143 13.6117C26.337 13.818 26.4246 14.1706 26.2369 14.4923C26.0519 14.8094 25.6973 14.8899 25.3566 14.7033C25.2954 14.6727 25.2442 14.6358 25.1633 14.5871Z" fill="#FEFEFE"/>
<path d="M25.1313 15.461C25.4415 15.6475 25.5236 16.0397 25.3233 16.3721C25.1112 16.7342 24.7242 16.838 24.3871 16.6352C24.077 16.4487 23.9948 16.0566 24.1978 15.7197C24.4117 15.3648 24.7898 15.2555 25.1313 15.461Z" fill="#FEFEFE"/>
<path d="M27.0164 17.8119C26.691 17.61 26.5945 17.2215 26.7867 16.9025C26.9807 16.5908 27.3731 16.5085 27.703 16.7131C28.0239 16.9122 28.1168 17.3169 27.9228 17.6287C27.7352 17.9198 27.3239 18.0029 27.0164 17.8119Z" fill="#FEFEFE"/>
<path d="M30.0773 19.9229C29.7402 19.7201 29.6463 19.3577 29.8439 19.0297C30.0334 18.7152 30.3997 18.6357 30.7278 18.833C31.0694 19.0385 31.1705 19.3992 30.9774 19.7298C30.7969 20.0497 30.4233 20.131 30.0773 19.9229Z" fill="#FEFEFE"/>
<path d="M27.2678 25.0466C27.0784 25.361 26.7201 25.4577 26.4118 25.2784C26.1034 25.099 26.0096 24.706 26.2108 24.3924C26.402 24.0851 26.772 23.9894 27.0686 24.1678C27.386 24.3526 27.4699 24.7213 27.2678 25.0466Z" fill="#FEFEFE"/>
<path d="M21.8468 21.8482C21.6573 22.1627 21.2918 22.2611 20.9925 22.0872C20.6841 21.9079 20.5903 21.5148 20.7843 21.2031C20.971 20.8931 21.3437 20.7928 21.6431 20.9668C21.9559 21.1488 22.0417 21.5248 21.8468 21.8482Z" fill="#FEFEFE"/>
<path d="M22.0874 20.0095C21.7773 19.823 21.6942 19.4731 21.8864 19.1542C22.0768 18.828 22.4395 18.7341 22.7586 18.926C23.0688 19.1125 23.1492 19.4669 22.9642 19.7841C22.7738 20.1102 22.4065 20.2015 22.0874 20.0095Z" fill="#FEFEFE"/>
<path d="M26.854 20.04C26.6591 20.3635 26.2892 20.4592 25.9772 20.2655C25.6833 20.0826 25.6003 19.7021 25.787 19.3922C25.9792 19.0732 26.3681 18.9766 26.6683 19.1694C26.9685 19.3622 27.048 19.7283 26.854 20.04Z" fill="#FEFEFE"/>
<path d="M30.7707 17.0739C30.9701 16.7531 31.3095 16.6574 31.6196 16.8439C31.9387 17.0358 32.0146 17.3875 31.8143 17.7199C31.6095 18.0497 31.2611 18.14 30.9429 17.9364C30.6427 17.7436 30.5713 17.3946 30.7707 17.0739Z" fill="#FEFEFE"/>
<path d="M23.0288 17.7328C23.2237 17.4094 23.5703 17.3118 23.8786 17.4911C24.196 17.6759 24.2782 18.0374 24.0778 18.3699C23.8775 18.7023 23.5175 18.7917 23.2056 18.598C22.9054 18.4052 22.8339 18.0563 23.0288 17.7328Z" fill="#FEFEFE"/>
<path d="M19.8162 24.0279C19.5061 23.8414 19.4158 23.4933 19.5963 23.1734C19.7822 22.8446 20.1476 22.7461 20.4667 22.9381C20.7814 23.1273 20.8699 23.4682 20.6822 23.7898C20.4819 24.1223 20.1425 24.2181 19.8162 24.0279Z" fill="#FEFEFE"/>
<path d="M18.7262 25.8189C18.4206 25.6351 18.3357 25.278 18.5206 24.9608C18.7137 24.6302 19.0738 24.5407 19.3974 24.7353C19.7075 24.9219 19.7906 25.2717 19.5985 25.5907C19.3982 25.9231 19.0498 26.0135 18.7262 25.8189Z" fill="#FEFEFE"/>
<path d="M24.7084 28.0712C25.0347 28.2614 25.1223 28.614 24.9247 28.9419C24.7326 29.2609 24.386 29.3584 24.0759 29.1719C23.7495 28.9818 23.6602 28.622 23.8578 28.294C24.0445 27.9841 24.4028 27.8874 24.7084 28.0712Z" fill="#FEFEFE"/>
<path d="M23.7447 24.0112C23.4211 23.8166 23.3389 23.455 23.5383 23.1342C23.735 22.818 24.0806 22.7321 24.3953 22.9213C24.7189 23.116 24.802 23.4659 24.5972 23.7956C24.4005 24.1118 24.0593 24.2004 23.7447 24.0112Z" fill="#FEFEFE"/>
<path d="M30.0865 13.1315C30.4056 13.3234 30.4923 13.6877 30.2884 14.0057C30.0872 14.3193 29.7461 14.4079 29.4315 14.2186C29.1079 14.024 29.031 13.684 29.234 13.3471C29.4334 13.0263 29.7674 12.9396 30.0865 13.1315Z" fill="#FEFEFE"/>
<path d="M28.207 22.3454C28.5073 22.5382 28.576 22.8917 28.3721 23.2097C28.1727 23.5305 27.8108 23.6128 27.4954 23.4046C27.1978 23.2073 27.1256 22.8395 27.3213 22.5349C27.5297 22.2196 27.8889 22.1418 28.207 22.3454Z" fill="#FEFEFE"/>
<path d="M22.5485 25.672C22.2132 25.4764 22.1337 25.1409 22.3367 24.804C22.5316 24.4805 22.8665 24.3821 23.1838 24.5668C23.5101 24.7569 23.5977 25.1095 23.4046 25.4402C23.2107 25.7519 22.8524 25.8486 22.5485 25.672Z" fill="#FEFEFE"/>
<path d="M27.6379 12.3383C27.4403 12.6662 27.1108 12.7557 26.7872 12.5611C26.4726 12.3718 26.3868 12.0264 26.5817 11.703C26.7775 11.3679 27.1304 11.2802 27.4585 11.4775C27.7749 11.6739 27.8427 12.0085 27.6379 12.3383Z" fill="#FEFEFE"/>
<path d="M33.0381 15.5684C32.8378 15.9009 32.5101 15.9976 32.1955 15.8083C31.8692 15.6182 31.7798 15.2584 31.9819 14.9332C32.1813 14.6124 32.5224 14.5238 32.8371 14.7131C33.1562 14.905 33.2357 15.2405 33.0381 15.5684Z" fill="#FEFEFE"/>
<path d="M29.4271 15.9907C29.2295 16.3187 28.8973 16.4127 28.58 16.2279C28.2582 16.0405 28.1742 15.7023 28.3673 15.3716C28.5685 15.0275 28.9124 14.9345 29.236 15.1291C29.5479 15.3228 29.6274 15.6583 29.4271 15.9907Z" fill="#FEFEFE"/>
<path d="M25.9216 21.6913C25.7258 22.0265 25.3954 22.1277 25.0781 21.9429C24.7446 21.7546 24.657 21.402 24.8573 21.0696C25.0495 20.7506 25.4005 20.6557 25.7134 20.8378C26.0325 21.0297 26.1165 21.3679 25.9216 21.6913Z" fill="#FEFEFE"/>
<path d="M26.1035 27.0807C25.9015 27.406 25.5702 27.4883 25.2511 27.2963C24.941 27.1098 24.8561 26.7527 25.0528 26.4365C25.2558 26.0995 25.6059 26.0164 25.9286 26.2227C26.2432 26.4119 26.3111 26.7465 26.1035 27.0807Z" fill="#FEFEFE"/>
<path d="M21.7246 27.69C21.41 27.5008 21.3377 27.1635 21.5353 26.8356C21.7329 26.5076 22.065 26.4136 22.3842 26.6056C22.7123 26.8029 22.7864 27.1474 22.5789 27.4816C22.375 27.7997 22.0437 27.882 21.7246 27.69Z" fill="#FEFEFE"/>
<path d="M29.6322 21.3429C29.4364 21.678 29.1042 21.772 28.7886 21.5945C28.4578 21.4016 28.3693 21.0608 28.5723 20.7238C28.7699 20.3959 29.1021 20.3019 29.4212 20.4938C29.743 20.6813 29.8226 21.0168 29.6322 21.3429Z" fill="#FEFEFE"/>
<path d="M20.0095 28.6461C20.1935 28.3406 20.5347 28.252 20.8152 28.4268C21.0839 28.6007 21.1607 28.9407 20.9875 29.2282C20.8088 29.5247 20.4605 29.6151 20.1755 29.4376C19.8996 29.2655 19.8308 28.9426 20.0095 28.6461Z" fill="#FEFEFE"/>
<path d="M22.9513 30.2679C23.1326 29.9669 23.4405 29.8828 23.7308 30.0513C24.0302 30.2252 24.1097 30.5607 23.9212 30.8635C23.7479 31.151 23.4112 31.2423 23.1299 31.0792C22.8395 30.9107 22.7627 30.5707 22.9513 30.2679Z" fill="#FEFEFE"/>
<path d="M18.2633 27.8085C18.0748 28.1113 17.7768 28.1891 17.4847 28.0134C17.1925 27.8377 17.1112 27.495 17.2916 27.2057C17.4721 26.9164 17.7961 26.8359 18.0793 27.0062C18.3876 27.1855 18.4573 27.4967 18.2633 27.8085Z" fill="#FEFEFE"/>
<path d="M21.712 32.4041C21.8754 32.1229 22.1571 32.0414 22.4205 32.1937C22.7046 32.3523 22.7824 32.65 22.6191 32.9313C22.4611 33.2035 22.1389 33.2912 21.8737 33.1317C21.6202 32.9732 21.5541 32.6763 21.712 32.4041Z" fill="#FEFEFE"/>
<path d="M18.9939 30.7503C19.1617 30.4718 19.4614 30.4011 19.7329 30.5705C19.9909 30.7318 20.0552 31.0214 19.8901 31.2954C19.7277 31.565 19.4297 31.6428 19.1681 31.4977C18.9047 31.3454 18.8288 31.0243 18.9939 30.7503Z" fill="#FEFEFE"/>
<path d="M17.0532 29.6133C16.8863 29.8801 16.5865 29.9508 16.3285 29.7895C16.0688 29.621 16.0045 29.3008 16.1759 29.0367C16.3473 28.7726 16.6371 28.7082 16.9041 28.8749C17.1828 29.0425 17.2336 29.324 17.0532 29.6133Z" fill="#FEFEFE"/>
<path d="M21.3291 34.7367C21.1793 34.9955 20.9002 35.0725 20.662 34.9292C20.4283 34.7886 20.3577 34.4891 20.5084 34.2492C20.6563 34.0139 20.9327 33.9414 21.1601 34.072C21.4127 34.2117 21.4789 34.478 21.3291 34.7367Z" fill="#FEFEFE"/>
<path d="M15.8203 31.5687C15.6661 31.8247 15.4203 31.8972 15.1749 31.7557C14.9205 31.6089 14.8526 31.3354 14.9969 31.0856C15.1458 30.8386 15.4438 30.7607 15.6748 30.9058C15.9085 31.0463 15.9665 31.3261 15.8203 31.5687Z" fill="#FEFEFE"/>
<path d="M18.6762 33.2079C18.5237 33.4712 18.2591 33.5446 18.0136 33.4031C17.7709 33.2571 17.7075 32.9864 17.8618 32.7303C18.008 32.4877 18.2753 32.4099 18.51 32.5387C18.7536 32.673 18.8278 32.9564 18.6762 33.2079Z" fill="#FEFEFE"/>
</svg>
