<svg width="51" height="17" viewBox="0 0 51 17" fill="none" xmlns="http://www.w3.org/2000/svg">
<path d="M21.8348 16.6605H17.7603L20.3068 1.02307H24.3817L21.8348 16.6605ZM14.3326 1.02307L10.4481 11.7786L9.98847 9.46253L9.98889 9.46336L8.61789 2.43104C8.61789 2.43104 8.45211 1.02307 6.68509 1.02307H0.263341L0.187988 1.28785C0.187988 1.28785 2.15177 1.6961 4.45003 3.07521L7.98995 16.6609H12.2352L18.7177 1.02307H14.3326ZM46.3806 16.6605H50.1219L46.8599 1.02265H43.5846C42.0721 1.02265 41.7037 2.18801 41.7037 2.18801L35.6269 16.6605H39.8743L40.7237 14.3377H45.9034L46.3806 16.6605ZM41.8971 11.129L44.038 5.2771L45.2423 11.129H41.8971ZM35.9455 4.78351L36.5269 1.42547C36.5269 1.42547 34.7327 0.743652 32.8623 0.743652C30.8403 0.743652 26.0386 1.62667 26.0386 5.92043C26.0386 9.96029 31.6742 10.0105 31.6742 12.1325C31.6742 14.2545 26.6193 13.8743 24.9511 12.5361L24.3453 16.0473C24.3453 16.0473 26.1647 16.9303 28.9443 16.9303C31.7249 16.9303 35.9195 15.4918 35.9195 11.5766C35.9195 7.51078 30.2333 7.13222 30.2333 5.36452C30.2337 3.5964 34.2019 3.82353 35.9455 4.78351Z" fill="#2566AF"/>
<path d="M9.98889 9.46475L8.61789 2.43178C8.61789 2.43178 8.45211 1.02368 6.68509 1.02368H0.263341L0.187988 1.28848C0.187988 1.28848 3.27453 1.92769 6.23506 4.32263C9.06582 6.61174 9.98889 9.46475 9.98889 9.46475Z" fill="#E6A540"/>
</svg>
